<?xml version="1.0" encoding="utf-8"?>
<!-- Generated by Mocodo 4.1.2 -->
<svg width="216" height="220" viewBox="0 0 216 220" xmlns="http://www.w3.org/2000/svg">
<rect x="0" y="0" width="216" height="220" fill="#ffffbf" stroke="none" stroke-width="0"/>

<!-- Association GERER -->
<g>
	<line x1="55" y1="68" x2="171" y2="68" stroke="#74add1" stroke-width="2"/>
	<line x1="171" y1="177" x2="171" y2="68" stroke="#74add1" stroke-width="2"/>
	<g>
		<path d="M185 43 a14 14 90 0 1 14 14 V68 h-56 V57 a14 14 90 0 1 14 -14" fill="#abd9e9" stroke="#abd9e9" stroke-width="0"/>
		<path d="M199 68 v11 a14 14 90 0 1 -14 14 H157 a14 14 90 0 1 -14 -14 V68 H56" fill="#e0f3f8" stroke="#e0f3f8" stroke-width="0"/>
		<rect x="143" y="43" width="56" height="50" fill="none" rx="14" stroke="#74add1" stroke-width="2"/>
		<line x1="143" y1="68" x2="199" y2="68" stroke="#74add1" stroke-width="1"/>
		<text x="150" y="60.75" fill="#000000" font-family="Verdana" font-size="12">GERER</text>
	</g>
	<text x="101" y="85" fill="#d73027" font-family="Verdana" font-size="12">0,N</text>
	<text x="176" y="135" fill="#d73027" font-family="Verdana" font-size="12">1,N</text>
</g>

<!-- Association APPARTENIR -->
<g>
	<line x1="55" y1="68" x2="55" y2="177" stroke="#74add1" stroke-width="2"/>
	<line x1="171" y1="177" x2="55" y2="177" stroke="#74add1" stroke-width="2"/>
	<g>
		<path d="M87 152 a14 14 90 0 1 14 14 V177 h-92 V166 a14 14 90 0 1 14 -14" fill="#abd9e9" stroke="#abd9e9" stroke-width="0"/>
		<path d="M101 177 v11 a14 14 90 0 1 -14 14 H23 a14 14 90 0 1 -14 -14 V177 H92" fill="#e0f3f8" stroke="#e0f3f8" stroke-width="0"/>
		<rect x="9" y="152" width="92" height="50" fill="none" rx="14" stroke="#74add1" stroke-width="2"/>
		<line x1="9" y1="177" x2="101" y2="177" stroke="#74add1" stroke-width="1"/>
		<text x="16" y="169.75" fill="#000000" font-family="Verdana" font-size="12">APPARTENIR</text>
	</g>
	<text x="60" y="144" fill="#d73027" font-family="Verdana" font-size="12">0,1</text>
	<text x="106" y="194" fill="#d73027" font-family="Verdana" font-size="12">O,N</text>
</g>

<!-- Entity EMPLOYE -->
<g>
	<g>
		<rect x="14" y="9" width="82" height="25" fill="#fdae61" stroke="none" stroke-width="0" opacity="1"/>
		<rect x="14" y="34" width="82" height="93" fill="#fee090" stroke="none" stroke-width="0" opacity="1"/>
		<rect x="14" y="9" width="82" height="118" fill="none" stroke="#f46d43" stroke-width="2" opacity="1"/>
		<line x1="14" y1="34" x2="96" y2="34" stroke="#f46d43" stroke-width="1"/>
	</g>
	<text x="27" y="26.75" fill="#000000" font-family="Verdana" font-size="12">EMPLOYE</text>
	<text x="19" y="51.8" fill="#000000" font-family="Verdana" font-size="12">id_employe</text>
	<line x1="19" y1="54" x2="90" y2="54" stroke="#000000" stroke-width="1"/>
	<text x="19" y="68.8" fill="#000000" font-family="Verdana" font-size="12">nom</text>
	<text x="19" y="85.8" fill="#000000" font-family="Verdana" font-size="12">prenom</text>
	<text x="19" y="102.8" fill="#000000" font-family="Verdana" font-size="12">mail</text>
	<text x="19" y="119.8" fill="#000000" font-family="Verdana" font-size="12">password</text>
</g>

<!-- Entity LIGUE -->
<g>
	<g>
		<rect x="135" y="143" width="72" height="25" fill="#fdae61" stroke="none" stroke-width="0" opacity="1"/>
		<rect x="135" y="168" width="72" height="43" fill="#fee090" stroke="none" stroke-width="0" opacity="1"/>
		<rect x="135" y="143" width="72" height="68" fill="none" stroke="#f46d43" stroke-width="2" opacity="1"/>
		<line x1="135" y1="168" x2="207" y2="168" stroke="#f46d43" stroke-width="1"/>
	</g>
	<text x="152" y="160.75" fill="#000000" font-family="Verdana" font-size="12">LIGUE</text>
	<text x="140" y="185.8" fill="#000000" font-family="Verdana" font-size="12">id_ligue</text>
	<line x1="140" y1="188" x2="188" y2="188" stroke="#000000" stroke-width="1"/>
	<text x="140" y="202.8" fill="#000000" font-family="Verdana" font-size="12">nom ligue</text>
</g>
</svg>