<?xml version="1.0" encoding="utf-8"?>
<!-- Generated by Mocodo 4.1.2 -->
<svg width="270" height="288" viewBox="0 0 270 288" xmlns="http://www.w3.org/2000/svg">
<rect x="0" y="0" width="270" height="288" fill="#ffffbf" stroke="none" stroke-width="0"/>

<!-- Association APPARTENIR -->
<g>
	<line x1="73" y1="102" x2="215" y2="102" stroke="#74add1" stroke-width="2"/>
	<line x1="215" y1="245" x2="215" y2="102" stroke="#74add1" stroke-width="2"/>
	<g>
		<path d="M247 77 a14 14 90 0 1 14 14 V102 h-92 V91 a14 14 90 0 1 14 -14" fill="#abd9e9" stroke="#abd9e9" stroke-width="0"/>
		<path d="M261 102 v11 a14 14 90 0 1 -14 14 H183 a14 14 90 0 1 -14 -14 V102 H92" fill="#e0f3f8" stroke="#e0f3f8" stroke-width="0"/>
		<rect x="169" y="77" width="92" height="50" fill="none" rx="14" stroke="#74add1" stroke-width="2"/>
		<line x1="169" y1="102" x2="261" y2="102" stroke="#74add1" stroke-width="1"/>
		<text x="176" y="94.75" fill="#000000" font-family="Verdana" font-size="12">APPARTENIR</text>
	</g>
	<text x="142" y="119" fill="#d73027" font-family="Verdana" font-size="12">0,1</text>
	<text x="220" y="203" fill="#d73027" font-family="Verdana" font-size="12">0,N</text>
</g>

<!-- Association GERER -->
<g>
	<line x1="73" y1="102" x2="73" y2="245" stroke="#74add1" stroke-width="2"/>
	<line x1="215" y1="245" x2="73" y2="245" stroke="#74add1" stroke-width="2"/>
	<g>
		<path d="M87 220 a14 14 90 0 1 14 14 V245 h-56 V234 a14 14 90 0 1 14 -14" fill="#abd9e9" stroke="#abd9e9" stroke-width="0"/>
		<path d="M101 245 v11 a14 14 90 0 1 -14 14 H59 a14 14 90 0 1 -14 -14 V245 H56" fill="#e0f3f8" stroke="#e0f3f8" stroke-width="0"/>
		<rect x="45" y="220" width="56" height="50" fill="none" rx="14" stroke="#74add1" stroke-width="2"/>
		<line x1="45" y1="245" x2="101" y2="245" stroke="#74add1" stroke-width="1"/>
		<text x="52" y="237.75" fill="#000000" font-family="Verdana" font-size="12">GERER</text>
	</g>
	<text x="78" y="212" fill="#d73027" font-family="Verdana" font-size="12">0,N</text>
	<text x="151" y="262" fill="#d73027" font-family="Verdana" font-size="12">1,N</text>
</g>

<!-- Entity EMPLOYE -->
<g>
	<g>
		<rect x="9" y="9" width="128" height="25" fill="#fdae61" stroke="none" stroke-width="0" opacity="1"/>
		<rect x="9" y="34" width="128" height="161" fill="#fee090" stroke="none" stroke-width="0" opacity="1"/>
		<rect x="9" y="9" width="128" height="186" fill="none" stroke="#f46d43" stroke-width="2" opacity="1"/>
		<line x1="9" y1="34" x2="137" y2="34" stroke="#f46d43" stroke-width="1"/>
	</g>
	<text x="45" y="26.75" fill="#000000" font-family="Verdana" font-size="12">EMPLOYE</text>
	<text x="14" y="51.8" fill="#000000" font-family="Verdana" font-size="12">id_employe</text>
	<line x1="14" y1="54" x2="85" y2="54" stroke="#000000" stroke-width="1"/>
	<text x="14" y="68.8" fill="#000000" font-family="Verdana" font-size="12">nom_employe</text>
	<text x="14" y="85.8" fill="#000000" font-family="Verdana" font-size="12">prenom_employe</text>
	<text x="14" y="102.8" fill="#000000" font-family="Verdana" font-size="12">mail_employe</text>
	<text x="14" y="119.8" fill="#000000" font-family="Verdana" font-size="12">password_employe</text>
	<text x="14" y="136.8" fill="#000000" font-family="Verdana" font-size="12">admin</text>
	<text x="14" y="153.8" fill="#000000" font-family="Verdana" font-size="12">root</text>
	<text x="14" y="170.8" fill="#000000" font-family="Verdana" font-size="12">dateArrivee</text>
	<text x="14" y="187.8" fill="#000000" font-family="Verdana" font-size="12">dateDepart</text>
</g>

<!-- Entity LIGUE -->
<g>
	<g>
		<rect x="178" y="211" width="74" height="25" fill="#fdae61" stroke="none" stroke-width="0" opacity="1"/>
		<rect x="178" y="236" width="74" height="43" fill="#fee090" stroke="none" stroke-width="0" opacity="1"/>
		<rect x="178" y="211" width="74" height="68" fill="none" stroke="#f46d43" stroke-width="2" opacity="1"/>
		<line x1="178" y1="236" x2="252" y2="236" stroke="#f46d43" stroke-width="1"/>
	</g>
	<text x="196" y="228.75" fill="#000000" font-family="Verdana" font-size="12">LIGUE</text>
	<text x="183" y="253.8" fill="#000000" font-family="Verdana" font-size="12">id_ligue</text>
	<line x1="183" y1="256" x2="231" y2="256" stroke="#000000" stroke-width="1"/>
	<text x="183" y="270.8" fill="#000000" font-family="Verdana" font-size="12">nom_ligue</text>
</g>
</svg>