<?xml version="1.0" encoding="utf-8"?>
<!-- Generated by Mocodo 4.1.2 -->
<svg width="243" height="263" viewBox="0 0 243 263" xmlns="http://www.w3.org/2000/svg">
<rect x="0" y="0" width="243" height="263" fill="#ffffbf" stroke="none" stroke-width="0"/>

<!-- Association GERER -->
<g>
	<line x1="73" y1="85" x2="197" y2="85" stroke="#74add1" stroke-width="2"/>
	<line x1="197" y1="220" x2="197" y2="85" stroke="#74add1" stroke-width="2"/>
	<g>
		<path d="M211 60 a14 14 90 0 1 14 14 V85 h-56 V74 a14 14 90 0 1 14 -14" fill="#abd9e9" stroke="#abd9e9" stroke-width="0"/>
		<path d="M225 85 v11 a14 14 90 0 1 -14 14 H183 a14 14 90 0 1 -14 -14 V85 H56" fill="#e0f3f8" stroke="#e0f3f8" stroke-width="0"/>
		<rect x="169" y="60" width="56" height="50" fill="none" rx="14" stroke="#74add1" stroke-width="2"/>
		<line x1="169" y1="85" x2="225" y2="85" stroke="#74add1" stroke-width="1"/>
		<text x="176" y="77.75" fill="#000000" font-family="Verdana" font-size="12">GERER</text>
	</g>
	<text x="142" y="102" fill="#d73027" font-family="Verdana" font-size="12">0,1</text>
	<text x="202" y="178" fill="#d73027" font-family="Verdana" font-size="12">0,1</text>
</g>

<!-- Association APPARTENIR -->
<g>
	<line x1="73" y1="85" x2="73" y2="220" stroke="#74add1" stroke-width="2"/>
	<line x1="197" y1="220" x2="73" y2="220" stroke="#74add1" stroke-width="2"/>
	<g>
		<path d="M105 195 a14 14 90 0 1 14 14 V220 h-92 V209 a14 14 90 0 1 14 -14" fill="#abd9e9" stroke="#abd9e9" stroke-width="0"/>
		<path d="M119 220 v11 a14 14 90 0 1 -14 14 H41 a14 14 90 0 1 -14 -14 V220 H92" fill="#e0f3f8" stroke="#e0f3f8" stroke-width="0"/>
		<rect x="27" y="195" width="92" height="50" fill="none" rx="14" stroke="#74add1" stroke-width="2"/>
		<line x1="27" y1="220" x2="119" y2="220" stroke="#74add1" stroke-width="1"/>
		<text x="34" y="212.75" fill="#000000" font-family="Verdana" font-size="12">APPARTENIR</text>
	</g>
	<text x="78" y="178" fill="#d73027" font-family="Verdana" font-size="12">0,1</text>
	<text x="133" y="237" fill="#d73027" font-family="Verdana" font-size="12">0,N</text>
</g>

<!-- Entity EMPLOYE -->
<g>
	<g>
		<rect x="9" y="9" width="128" height="25" fill="#fdae61" stroke="none" stroke-width="0" opacity="1"/>
		<rect x="9" y="34" width="128" height="127" fill="#fee090" stroke="none" stroke-width="0" opacity="1"/>
		<rect x="9" y="9" width="128" height="152" fill="none" stroke="#f46d43" stroke-width="2" opacity="1"/>
		<line x1="9" y1="34" x2="137" y2="34" stroke="#f46d43" stroke-width="1"/>
	</g>
	<text x="45" y="26.75" fill="#000000" font-family="Verdana" font-size="12">EMPLOYE</text>
	<text x="14" y="51.8" fill="#000000" font-family="Verdana" font-size="12">id_employe</text>
	<line x1="14" y1="54" x2="85" y2="54" stroke="#000000" stroke-width="1"/>
	<text x="14" y="68.8" fill="#000000" font-family="Verdana" font-size="12">nom_employe</text>
	<text x="14" y="85.8" fill="#000000" font-family="Verdana" font-size="12">prenom_employe</text>
	<text x="14" y="102.8" fill="#000000" font-family="Verdana" font-size="12">mail_employe</text>
	<text x="14" y="119.8" fill="#000000" font-family="Verdana" font-size="12">password_employe</text>
	<text x="14" y="136.8" fill="#000000" font-family="Verdana" font-size="12">dateArrivee</text>
	<text x="14" y="153.8" fill="#000000" font-family="Verdana" font-size="12">dateDepart</text>
</g>

<!-- Entity LIGUE -->
<g>
	<g>
		<rect x="160" y="186" width="74" height="25" fill="#fdae61" stroke="none" stroke-width="0" opacity="1"/>
		<rect x="160" y="211" width="74" height="43" fill="#fee090" stroke="none" stroke-width="0" opacity="1"/>
		<rect x="160" y="186" width="74" height="68" fill="none" stroke="#f46d43" stroke-width="2" opacity="1"/>
		<line x1="160" y1="211" x2="234" y2="211" stroke="#f46d43" stroke-width="1"/>
	</g>
	<text x="178" y="203.75" fill="#000000" font-family="Verdana" font-size="12">LIGUE</text>
	<text x="165" y="228.8" fill="#000000" font-family="Verdana" font-size="12">id_ligue</text>
	<line x1="165" y1="231" x2="213" y2="231" stroke="#000000" stroke-width="1"/>
	<text x="165" y="245.8" fill="#000000" font-family="Verdana" font-size="12">nom_ligue</text>
</g>
</svg>