<?xml version="1.0" encoding="utf-8"?>
<!-- Generated by Mocodo 4.2.4 -->
<svg width="376" height="188" viewBox="0 0 376 188" xmlns="http://www.w3.org/2000/svg">
<rect x="0" y="0" width="376" height="188" fill="#ffffbf" stroke="none" stroke-width="0"/>

<!-- Association APPARTENIR -->
<g>
	<line x1="73" y1="94" x2="215" y2="94" stroke="#74add1" stroke-width="2"/>
	<line x1="330" y1="94" x2="215" y2="94" stroke="#74add1" stroke-width="2"/>
	<g>
		<path d="M247 69 a14 14 90 0 1 14 14 V94 h-92 V83 a14 14 90 0 1 14 -14" fill="#abd9e9" stroke="#abd9e9" stroke-width="0"/>
		<path d="M261 94 v11 a14 14 90 0 1 -14 14 H183 a14 14 90 0 1 -14 -14 V94 H92" fill="#e0f3f8" stroke="#e0f3f8" stroke-width="0"/>
		<rect x="169" y="69" width="92" height="50" fill="none" rx="14" stroke="#74add1" stroke-width="2"/>
		<line x1="169" y1="94" x2="261" y2="94" stroke="#74add1" stroke-width="1"/>
		<text x="176" y="86.75" fill="#000000" font-family="Verdana" font-size="12">APPARTENIR</text>
	</g>
	<text x="142" y="111" fill="#d73027" font-family="Verdana" font-size="12">0,1</text>
	<text x="266" y="111" fill="#d73027" font-family="Verdana" font-size="12">0,N</text>
</g>

<!-- Entity EMPLOYE -->
<g>
	<g>
		<rect x="9" y="9" width="128" height="25" fill="#fdae61" stroke="none" stroke-width="0" opacity="1"/>
		<rect x="9" y="34" width="128" height="145" fill="#fee090" stroke="none" stroke-width="0" opacity="1"/>
		<rect x="9" y="9" width="128" height="170" fill="none" stroke="#f46d43" stroke-width="2" opacity="1"/>
		<line x1="9" y1="34" x2="137" y2="34" stroke="#f46d43" stroke-width="1"/>
	</g>
	<text x="45" y="26.75" fill="#000000" font-family="Verdana" font-size="12">EMPLOYE</text>
	<text x="14" y="51.8" fill="#000000" font-family="Verdana" font-size="12">id_employe</text>
	<line x1="14" y1="54" x2="85" y2="54" stroke="#000000" stroke-width="1"/>
	<text x="14" y="68.8" fill="#000000" font-family="Verdana" font-size="12">nom_employe</text>
	<text x="14" y="85.8" fill="#000000" font-family="Verdana" font-size="12">prenom_employe</text>
	<text x="14" y="102.8" fill="#000000" font-family="Verdana" font-size="12">mail_employe</text>
	<text x="14" y="119.8" fill="#000000" font-family="Verdana" font-size="12">password_employe</text>
	<text x="14" y="136.8" fill="#000000" font-family="Verdana" font-size="12">dateArrivee</text>
	<text x="14" y="153.8" fill="#000000" font-family="Verdana" font-size="12">dateDepart</text>
	<text x="14" y="170.8" fill="#000000" font-family="Verdana" font-size="12">admin</text>
</g>

<!-- Entity LIGUE -->
<g>
	<g>
		<rect x="293" y="60" width="74" height="25" fill="#fdae61" stroke="none" stroke-width="0" opacity="1"/>
		<rect x="293" y="85" width="74" height="43" fill="#fee090" stroke="none" stroke-width="0" opacity="1"/>
		<rect x="293" y="60" width="74" height="68" fill="none" stroke="#f46d43" stroke-width="2" opacity="1"/>
		<line x1="293" y1="85" x2="367" y2="85" stroke="#f46d43" stroke-width="1"/>
	</g>
	<text x="311" y="77.75" fill="#000000" font-family="Verdana" font-size="12">LIGUE</text>
	<text x="298" y="102.8" fill="#000000" font-family="Verdana" font-size="12">id_ligue</text>
	<line x1="298" y1="105" x2="346" y2="105" stroke="#000000" stroke-width="1"/>
	<text x="298" y="119.8" fill="#000000" font-family="Verdana" font-size="12">nom_ligue</text>
</g>
</svg>