<?xml version="1.0" encoding="utf-8"?>
<!-- Generated by Mocodo 4.1.2 -->
<svg width="270" height="238" viewBox="0 0 270 238" xmlns="http://www.w3.org/2000/svg">
<rect x="0" y="0" width="270" height="238" fill="#ffffbf" stroke="none" stroke-width="0"/>

<!-- Association APPARTENIR -->
<g>
	<line x1="197" y1="77" x2="55" y2="77" stroke="#74add1" stroke-width="2"/>
	<line x1="55" y1="195" x2="55" y2="77" stroke="#74add1" stroke-width="2"/>
	<g>
		<path d="M87 52 a14 14 90 0 1 14 14 V77 h-92 V66 a14 14 90 0 1 14 -14" fill="#abd9e9" stroke="#abd9e9" stroke-width="0"/>
		<path d="M101 77 v11 a14 14 90 0 1 -14 14 H23 a14 14 90 0 1 -14 -14 V77 H92" fill="#e0f3f8" stroke="#e0f3f8" stroke-width="0"/>
		<rect x="9" y="52" width="92" height="50" fill="none" rx="14" stroke="#74add1" stroke-width="2"/>
		<line x1="9" y1="77" x2="101" y2="77" stroke="#74add1" stroke-width="1"/>
		<text x="16" y="69.75" fill="#000000" font-family="Verdana" font-size="12">APPARTENIR</text>
	</g>
	<text x="107" y="94" fill="#d73027" font-family="Verdana" font-size="12">0,1</text>
	<text x="60" y="153" fill="#d73027" font-family="Verdana" font-size="12">0,N</text>
</g>

<!-- Association GERER -->
<g>
	<line x1="197" y1="77" x2="197" y2="195" stroke="#74add1" stroke-width="2"/>
	<line x1="55" y1="195" x2="197" y2="195" stroke="#74add1" stroke-width="2"/>
	<g>
		<path d="M211 170 a14 14 90 0 1 14 14 V195 h-56 V184 a14 14 90 0 1 14 -14" fill="#abd9e9" stroke="#abd9e9" stroke-width="0"/>
		<path d="M225 195 v11 a14 14 90 0 1 -14 14 H183 a14 14 90 0 1 -14 -14 V195 H56" fill="#e0f3f8" stroke="#e0f3f8" stroke-width="0"/>
		<rect x="169" y="170" width="56" height="50" fill="none" rx="14" stroke="#74add1" stroke-width="2"/>
		<line x1="169" y1="195" x2="225" y2="195" stroke="#74add1" stroke-width="1"/>
		<text x="176" y="187.75" fill="#000000" font-family="Verdana" font-size="12">GERER</text>
		<text x="176" y="212.8" fill="#000000" font-family="Verdana" font-size="12">root</text>
	</g>
	<text x="202" y="162" fill="#d73027" font-family="Verdana" font-size="12">0,N</text>
	<text x="97" y="212" fill="#d73027" font-family="Verdana" font-size="12">1,N</text>
</g>

<!-- Entity EMPLOYE -->
<g>
	<g>
		<rect x="133" y="9" width="128" height="25" fill="#fdae61" stroke="none" stroke-width="0" opacity="1"/>
		<rect x="133" y="34" width="128" height="111" fill="#fee090" stroke="none" stroke-width="0" opacity="1"/>
		<rect x="133" y="9" width="128" height="136" fill="none" stroke="#f46d43" stroke-width="2" opacity="1"/>
		<line x1="133" y1="34" x2="261" y2="34" stroke="#f46d43" stroke-width="1"/>
	</g>
	<text x="169" y="26.75" fill="#000000" font-family="Verdana" font-size="12">EMPLOYE</text>
	<text x="138" y="51.8" fill="#000000" font-family="Verdana" font-size="12">id_employe</text>
	<line x1="138" y1="54" x2="209" y2="54" stroke="#000000" stroke-width="1"/>
	<text x="138" y="68.8" fill="#000000" font-family="Verdana" font-size="12">nom_employe</text>
	<text x="138" y="85.8" fill="#000000" font-family="Verdana" font-size="12">prenom_employe</text>
	<text x="138" y="102.8" fill="#000000" font-family="Verdana" font-size="12">mail_employe</text>
	<text x="138" y="119.8" fill="#000000" font-family="Verdana" font-size="12">password_employe</text>
	<text x="138" y="136.8" fill="#000000" font-family="Verdana" font-size="12">admin</text>
</g>

<!-- Entity LIGUE -->
<g>
	<g>
		<rect x="18" y="161" width="74" height="25" fill="#fdae61" stroke="none" stroke-width="0" opacity="1"/>
		<rect x="18" y="186" width="74" height="43" fill="#fee090" stroke="none" stroke-width="0" opacity="1"/>
		<rect x="18" y="161" width="74" height="68" fill="none" stroke="#f46d43" stroke-width="2" opacity="1"/>
		<line x1="18" y1="186" x2="92" y2="186" stroke="#f46d43" stroke-width="1"/>
	</g>
	<text x="36" y="178.75" fill="#000000" font-family="Verdana" font-size="12">LIGUE</text>
	<text x="23" y="203.8" fill="#000000" font-family="Verdana" font-size="12">id_ligue</text>
	<line x1="23" y1="206" x2="71" y2="206" stroke="#000000" stroke-width="1"/>
	<text x="23" y="220.8" fill="#000000" font-family="Verdana" font-size="12">nom_ligue</text>
</g>
</svg>