<?xml version="1.0" encoding="utf-8"?>
<!-- Generated by Mocodo 4.1.2 -->
<svg width="270" height="272" viewBox="0 0 270 272" xmlns="http://www.w3.org/2000/svg">
<rect x="0" y="0" width="270" height="272" fill="#ffffbf" stroke="none" stroke-width="0"/>

<!-- Association APPARTENIR -->
<g>
	<line x1="197" y1="94" x2="55" y2="94" stroke="#74add1" stroke-width="2"/>
	<line x1="55" y1="229" x2="55" y2="94" stroke="#74add1" stroke-width="2"/>
	<g>
		<path d="M87 69 a14 14 90 0 1 14 14 V94 h-92 V83 a14 14 90 0 1 14 -14" fill="#abd9e9" stroke="#abd9e9" stroke-width="0"/>
		<path d="M101 94 v11 a14 14 90 0 1 -14 14 H23 a14 14 90 0 1 -14 -14 V94 H92" fill="#e0f3f8" stroke="#e0f3f8" stroke-width="0"/>
		<rect x="9" y="69" width="92" height="50" fill="none" rx="14" stroke="#74add1" stroke-width="2"/>
		<line x1="9" y1="94" x2="101" y2="94" stroke="#74add1" stroke-width="1"/>
		<text x="16" y="86.75" fill="#000000" font-family="Verdana" font-size="12">APPARTENIR</text>
	</g>
	<text x="107" y="111" fill="#d73027" font-family="Verdana" font-size="12">0,1</text>
	<text x="60" y="187" fill="#d73027" font-family="Verdana" font-size="12">0,N</text>
</g>

<!-- Association GERER -->
<g>
	<line x1="197" y1="94" x2="197" y2="229" stroke="#74add1" stroke-width="2"/>
	<line x1="55" y1="229" x2="197" y2="229" stroke="#74add1" stroke-width="2"/>
	<g>
		<path d="M211 204 a14 14 90 0 1 14 14 V229 h-56 V218 a14 14 90 0 1 14 -14" fill="#abd9e9" stroke="#abd9e9" stroke-width="0"/>
		<path d="M225 229 v11 a14 14 90 0 1 -14 14 H183 a14 14 90 0 1 -14 -14 V229 H56" fill="#e0f3f8" stroke="#e0f3f8" stroke-width="0"/>
		<rect x="169" y="204" width="56" height="50" fill="none" rx="14" stroke="#74add1" stroke-width="2"/>
		<line x1="169" y1="229" x2="225" y2="229" stroke="#74add1" stroke-width="1"/>
		<text x="176" y="221.75" fill="#000000" font-family="Verdana" font-size="12">GERER</text>
		<text x="176" y="246.8" fill="#000000" font-family="Verdana" font-size="12">root</text>
	</g>
	<text x="202" y="196" fill="#d73027" font-family="Verdana" font-size="12">0,N</text>
	<text x="97" y="246" fill="#d73027" font-family="Verdana" font-size="12">1,N</text>
</g>

<!-- Entity EMPLOYE -->
<g>
	<g>
		<rect x="133" y="9" width="128" height="25" fill="#fdae61" stroke="none" stroke-width="0" opacity="1"/>
		<rect x="133" y="34" width="128" height="145" fill="#fee090" stroke="none" stroke-width="0" opacity="1"/>
		<rect x="133" y="9" width="128" height="170" fill="none" stroke="#f46d43" stroke-width="2" opacity="1"/>
		<line x1="133" y1="34" x2="261" y2="34" stroke="#f46d43" stroke-width="1"/>
	</g>
	<text x="169" y="26.75" fill="#000000" font-family="Verdana" font-size="12">EMPLOYE</text>
	<text x="138" y="51.8" fill="#000000" font-family="Verdana" font-size="12">id_employe</text>
	<line x1="138" y1="54" x2="209" y2="54" stroke="#000000" stroke-width="1"/>
	<text x="138" y="68.8" fill="#000000" font-family="Verdana" font-size="12">nom_employe</text>
	<text x="138" y="85.8" fill="#000000" font-family="Verdana" font-size="12">prenom_employe</text>
	<text x="138" y="102.8" fill="#000000" font-family="Verdana" font-size="12">mail_employe</text>
	<text x="138" y="119.8" fill="#000000" font-family="Verdana" font-size="12">password_employe</text>
	<text x="138" y="136.8" fill="#000000" font-family="Verdana" font-size="12">admin</text>
	<text x="138" y="153.8" fill="#000000" font-family="Verdana" font-size="12">dateArrivee</text>
	<text x="138" y="170.8" fill="#000000" font-family="Verdana" font-size="12">dateDepart</text>
</g>

<!-- Entity LIGUE -->
<g>
	<g>
		<rect x="18" y="195" width="74" height="25" fill="#fdae61" stroke="none" stroke-width="0" opacity="1"/>
		<rect x="18" y="220" width="74" height="43" fill="#fee090" stroke="none" stroke-width="0" opacity="1"/>
		<rect x="18" y="195" width="74" height="68" fill="none" stroke="#f46d43" stroke-width="2" opacity="1"/>
		<line x1="18" y1="220" x2="92" y2="220" stroke="#f46d43" stroke-width="1"/>
	</g>
	<text x="36" y="212.75" fill="#000000" font-family="Verdana" font-size="12">LIGUE</text>
	<text x="23" y="237.8" fill="#000000" font-family="Verdana" font-size="12">id_ligue</text>
	<line x1="23" y1="240" x2="71" y2="240" stroke="#000000" stroke-width="1"/>
	<text x="23" y="254.8" fill="#000000" font-family="Verdana" font-size="12">nom_ligue</text>
</g>
</svg>